<?xml version="1.0" standalone="no"?>
<!DOCTYPE svg PUBLIC "-//W3C//DTD SVG 20010904//EN"
 "http://www.w3.org/TR/2001/REC-SVG-20010904/DTD/svg10.dtd">
<svg version="1.0" xmlns="http://www.w3.org/2000/svg"
 width="384.000000pt" height="384.000000pt" viewBox="0 0 384.000000 384.000000"
 preserveAspectRatio="xMidYMid meet">
<metadata>
Created by potrace 1.14, written by Peter Selinger 2001-2017
</metadata>
<g transform="translate(0.000000,384.000000) scale(0.100000,-0.100000)"
fill="#000000" stroke="none">
<path d="M0 1920 l0 -1920 1920 0 1920 0 0 1920 0 1920 -1920 0 -1920 0 0
-1920z m1178 803 c-97 -2 -259 -2 -360 0 -101 1 -21 2 177 2 198 0 280 -1 183
-2z m485 0 c-7 -2 -19 -2 -25 0 -7 3 -2 5 12 5 14 0 19 -2 13 -5z m470 0 c-84
-2 -222 -2 -305 0 -84 1 -16 3 152 3 168 0 236 -2 153 -3z m184 1 c-3 -3 -12
-4 -19 -1 -8 3 -5 6 6 6 11 1 17 -2 13 -5z m280 0 c-3 -3 -12 -4 -19 -1 -8 3
-5 6 6 6 11 1 17 -2 13 -5z m476 -1 c-83 -2 -223 -2 -310 0 -87 1 -18 3 152 3
171 0 242 -2 158 -3z m-1643 -793 c0 -424 1 -773 3 -777 1 -5 -177 -9 -395
-11 l-398 -2 0 643 c0 487 -3 646 -12 655 -7 7 -27 12 -45 12 l-33 0 0 125 0
125 440 0 440 0 0 -770z m940 205 l0 -565 -64 0 c-101 0 -101 0 -6 -217 45
-103 85 -194 87 -200 4 -10 -25 -13 -124 -13 l-130 0 -57 123 -57 123 0 219 0
220 38 5 38 5 3 295 c2 268 1 296 -15 308 -24 17 -197 17 -212 -1 -8 -10 -12
-201 -13 -653 l-3 -639 -137 -3 -138 -3 0 781 0 780 395 0 395 0 0 -565z m940
385 l0 -180 -135 0 -135 0 0 39 c0 61 -17 71 -121 71 -144 0 -129 61 -129
-530 0 -590 -14 -530 125 -530 134 0 125 -19 125 255 0 221 -1 235 -19 245
-11 5 -33 10 -50 10 l-31 0 0 100 0 100 185 -2 c102 -2 185 -6 185 -10 0 -5 0
-220 0 -478 l0 -470 -395 2 -395 3 0 770 c-1 424 -1 773 0 778 0 4 178 7 395
7 l395 0 0 -180z m-2693 -116 c2 -13 1 -15 -4 -4 -3 8 -11 19 -17 23 -7 6 -6
7 4 4 8 -2 16 -12 17 -23z m1285 14 c-5 -7 -12 -22 -15 -33 -4 -16 -5 -14 -6
7 -1 22 7 33 28 37 2 1 -1 -5 -7 -11z m167 3 c7 -5 12 -13 10 -18 -2 -5 -12
-1 -21 9 -19 19 -13 24 11 9z m764 -9 c-10 -10 -20 -14 -22 -9 -2 5 3 13 10
18 24 15 30 10 12 -9z m177 3 c19 -22 8 -25 -12 -3 -10 10 -14 18 -9 18 5 0
14 -7 21 -15z"/>
<path d="M932 2438 c-17 -17 -17 -1019 0 -1036 15 -15 181 -16 209 -2 18 10
19 27 19 518 0 382 -3 511 -12 520 -8 8 -47 12 -108 12 -61 0 -100 -4 -108
-12z m31 -26 c-20 -21 -28 -20 -20 3 4 8 13 15 22 15 13 0 12 -3 -2 -18z m161
12 c10 -4 16 -17 15 -38 -2 -27 -2 -27 -6 -6 -2 14 -12 31 -21 38 -17 13 -13
16 12 6z"/>
</g>
</svg>
